<?xml version="1.0" standalone="no"?>
<!DOCTYPE svg PUBLIC "-//W3C//DTD SVG 20010904//EN"
 "http://www.w3.org/TR/2001/REC-SVG-20010904/DTD/svg10.dtd">
<svg version="1.0" xmlns="http://www.w3.org/2000/svg"
 width="260.000000pt" height="260.000000pt" viewBox="0 0 260.000000 260.000000"
 preserveAspectRatio="xMidYMid meet">
<metadata>
Created by potrace 1.14, written by Peter Selinger 2001-2017
</metadata>
<g transform="translate(0.000000,260.000000) scale(0.100000,-0.100000)"
fill="#000000" stroke="none">
<path d="M668 2319 c-10 -5 -18 -17 -18 -25 0 -24 181 -426 202 -449 14 -15
22 -17 36 -9 9 6 18 20 20 31 3 22 -182 443 -200 455 -16 10 -19 10 -40 -3z"/>
<path d="M1313 2218 c-13 -17 -26 -299 -15 -316 5 -8 20 -12 33 -10 21 3 25
10 32 58 4 30 6 105 5 165 -3 103 -4 110 -24 113 -11 2 -25 -3 -31 -10z"/>
<path d="M1892 2193 c-10 -21 -47 -100 -82 -177 -49 -106 -61 -142 -53 -155
13 -21 47 -26 60 -9 25 34 154 332 151 351 -2 15 -11 23 -30 25 -23 3 -30 -3
-46 -35z"/>
<path d="M2263 1993 c-103 -112 -193 -224 -193 -241 0 -12 9 -26 19 -32 16 -8
25 -5 45 12 42 38 206 232 206 245 0 14 -28 43 -41 43 -6 0 -21 -12 -36 -27z"/>
<path d="M264 1966 c-11 -30 4 -47 135 -151 125 -99 135 -105 155 -92 41 28
31 43 -104 151 -130 105 -173 126 -186 92z"/>
<path d="M1115 1699 c-173 -23 -370 -96 -463 -171 -61 -49 -129 -144 -152
-213 -25 -76 -35 -170 -22 -216 9 -35 8 -37 -36 -73 -89 -72 -114 -133 -71
-172 22 -20 81 -25 136 -11 32 8 33 8 33 -26 0 -26 -5 -36 -24 -45 -44 -20
-59 -56 -60 -140 -2 -175 65 -241 301 -301 257 -65 618 -75 947 -25 301 45
439 93 488 171 20 34 23 50 23 146 0 106 -1 109 -28 133 l-28 23 28 7 c16 3
36 8 45 10 18 5 68 140 68 186 0 20 -15 42 -55 81 -42 42 -51 57 -42 66 20 20
13 187 -11 248 -48 125 -127 190 -300 249 -151 52 -307 76 -522 79 -102 2
-216 -1 -255 -6z m375 -70 c204 -19 397 -67 505 -127 90 -49 145 -152 145
-271 0 -71 -14 -86 -114 -116 -203 -61 -519 -96 -876 -96 -318 0 -536 28 -585
77 -37 37 -7 200 54 287 94 137 300 223 601 251 78 7 161 5 270 -5z m688 -607
c3 -9 -23 -12 -105 -11 -59 0 -101 3 -93 7 8 3 42 16 75 27 56 20 62 20 89 6
16 -9 31 -22 34 -29z m-1570 -32 c29 -11 61 -20 72 -20 25 0 25 0 -7 -59 -24
-42 -26 -51 -14 -65 24 -29 53 -14 94 47 32 48 43 58 60 54 12 -3 83 -9 159
-13 l136 -7 6 -30 c8 -38 23 -57 47 -57 24 0 38 28 32 62 -6 30 -18 28 275 45
l134 8 19 -31 c19 -32 26 -104 10 -104 -5 0 -28 9 -52 20 -29 13 -66 20 -107
20 -57 0 -67 -3 -93 -29 -16 -16 -29 -37 -29 -45 0 -27 -52 -19 -104 15 -40
27 -51 30 -71 21 -24 -11 -45 -64 -59 -153 -7 -42 -29 -75 -44 -65 -16 9 -52
125 -58 187 -9 76 -25 99 -72 99 -41 0 -95 -30 -193 -106 -85 -67 -113 -57
-125 43 -12 110 -27 124 -101 99 -86 -29 -94 -21 -35 34 29 28 56 50 60 50 4
0 31 -9 60 -20z m1258 -35 c73 -21 107 -25 220 -25 l133 0 -14 -32 c-11 -28
-21 -34 -57 -41 -109 -21 -403 29 -440 74 -25 30 -23 37 15 42 17 2 38 5 44 5
7 1 52 -9 99 -23z m-73 -142 c72 -19 83 -36 26 -41 -27 -2 -44 4 -73 28 -45
35 -43 36 47 13z m-863 -28 c0 -28 -3 -30 -32 -14 -21 11 -21 12 -3 25 27 20
35 17 35 -11z m629 -17 l23 -16 -38 -26 c-22 -14 -67 -33 -101 -42 -54 -15
-67 -15 -90 -4 -25 12 -26 14 -8 18 26 5 54 30 72 66 14 27 18 28 67 24 29 -2
63 -12 75 -20z m579 -141 c5 -125 -24 -154 -193 -196 -405 -101 -877 -105
-1223 -11 -133 36 -179 78 -189 172 -3 31 -3 67 0 80 l6 24 98 -32 c54 -18
154 -43 223 -56 114 -21 128 -25 156 -55 17 -18 41 -33 53 -33 26 0 63 18 73
35 6 9 38 11 121 7 228 -10 525 33 740 107 61 21 117 37 122 36 6 -1 11 -36
13 -78z"/>
</g>
</svg>
